<?xml version="1.0" standalone="no"?>
<!DOCTYPE svg PUBLIC "-//W3C//DTD SVG 20010904//EN"
 "http://www.w3.org/TR/2001/REC-SVG-20010904/DTD/svg10.dtd">
<svg version="1.0" xmlns="http://www.w3.org/2000/svg"
 width="1024.000000pt" height="1024.000000pt" viewBox="0 0 1024.000000 1024.000000"
 preserveAspectRatio="xMidYMid meet">
<g transform="translate(0.000000,1024.000000) scale(0.050000,-0.050000)"
fill="#000000" stroke="none">
<path d="M10220 18145 c0 -184 -6 -463 -13 -620 l-13 -285 46 0 46 0 -13 345
c-7 190 -13 469 -13 620 0 170 -8 275 -20 275 -13 0 -20 -125 -20 -335z"/>
<path d="M8081 18243 c-1 -34 298 -1188 431 -1658 27 -96 88 -150 88 -78 0 72
-517 1801 -519 1736z"/>
<path d="M12380 18234 c0 -7 -71 -250 -158 -539 -165 -548 -342 -1168 -342
-1200 0 -58 71 7 92 85 13 50 52 194 85 320 34 127 80 298 102 380 114 420
242 946 232 955 -6 7 -11 6 -11 -1z"/>
<path d="M14385 17395 c-323 -508 -905 -1502 -905 -1544 0 -62 80 30 186 214
170 296 545 963 654 1165 47 88 103 189 124 225 70 116 23 69 -59 -60z"/>
<path d="M6126 17300 c60 -115 206 -381 324 -590 118 -209 259 -458 313 -554
104 -183 129 -212 159 -182 18 18 -20 85 -553 976 -328 548 -400 652 -243 350z"/>
<path d="M10179 16848 c-118 -141 -486 -331 -946 -486 -843 -286 -1198 -550
-1510 -1124 -112 -205 -110 -208 102 -109 665 311 1390 342 2009 87 l145 -59
245 119 c810 395 1554 387 2351 -25 135 -70 245 -122 245 -116 0 81 -294 477
-490 660 -272 255 -488 367 -1099 574 -449 152 -702 278 -907 454 -75 65 -108
71 -145 25z"/>
<path d="M4440 16029 c547 -582 883 -912 916 -899 34 14 -480 533 -906 915
l-160 144 150 -160z"/>
<path d="M15858 15886 c-707 -674 -859 -831 -833 -863 21 -24 71 19 311 269
603 629 848 888 839 888 -6 0 -148 -132 -317 -294z"/>
<path d="M7450 15766 c-517 -67 -754 -177 -1430 -664 -327 -235 -741 -422
-935 -422 -46 0 -46 -1 -33 -215 18 -305 -24 -515 -223 -1128 -223 -685 -239
-765 -239 -1197 1 -671 198 -1212 618 -1690 l70 -80 -12 230 c-36 726 193
1380 656 1874 73 78 330 308 353 317 3 1 18 82 35 181 44 258 152 573 322 940
155 335 207 514 208 714 0 139 48 200 171 222 44 7 125 23 182 34 l102 20 55
154 c70 198 208 465 310 599 44 58 80 110 80 115 0 11 -197 8 -290 -4z"/>
<path d="M12882 15588 c5 -10 42 -79 85 -153 42 -74 106 -208 143 -298 77
-188 70 -182 275 -227 209 -46 255 -84 255 -212 0 -185 61 -402 204 -728 77
-176 174 -423 216 -549 l76 -229 157 -110 c783 -550 1179 -1500 1048 -2512
-20 -154 -20 -154 83 -22 524 668 624 1343 355 2406 -150 596 -175 790 -142
1091 28 247 31 239 -107 275 -261 67 -521 223 -910 545 -505 417 -775 571
-1190 678 -170 43 -561 76 -548 45z"/>
<path d="M11165 15280 c-253 -28 -453 -81 -720 -195 -195 -82 -193 -76 -54
-164 140 -89 357 -280 502 -443 l114 -128 182 -14 c868 -67 1478 -650 1591
-1521 11 -85 48 -215 91 -315 246 -580 298 -1348 132 -1946 l-38 -136 41 36
c587 508 998 1542 914 2302 -37 344 -159 768 -299 1041 -128 251 -241 612
-241 769 0 65 -4 70 -83 82 -183 29 -370 108 -797 335 -477 254 -887 345
-1335 297z"/>
<path d="M8700 15107 c-327 -49 -522 -111 -860 -271 -277 -132 -493 -210 -628
-229 l-89 -12 -14 -122 c-19 -171 -75 -342 -192 -591 -293 -620 -368 -909
-366 -1422 3 -716 279 -1452 733 -1949 l90 -99 -31 159 c-117 604 -7 1449 260
2007 55 114 117 262 138 330 213 676 919 1084 1726 996 l196 -22 114 77 c219
148 522 276 780 328 l126 25 -126 125 c-474 469 -1275 757 -1857 670z"/>
<path d="M2880 14452 c0 -47 1649 -1005 1671 -971 20 34 -44 76 -511 334 -476
262 -798 442 -840 468 -83 52 -320 177 -320 169z"/>
<path d="M17000 14125 c-899 -501 -1019 -572 -1019 -610 -1 -19 2 -35 6 -35
37 0 1553 910 1553 931 0 14 11 20 -540 -286z"/>
<path d="M10910 14066 c-319 -27 -881 -200 -670 -206 180 -5 510 -189 721
-403 127 -129 208 -191 319 -247 477 -240 738 -811 717 -1569 -9 -320 -14
-317 157 -96 674 874 365 2141 -597 2445 -119 37 -550 104 -564 87 -2 -2 -39
-7 -83 -11z"/>
<path d="M8955 13619 c-507 -85 -879 -428 -986 -911 -102 -460 59 -1147 353
-1508 l41 -50 -12 101 c-76 663 358 1909 807 2315 l82 74 -95 -2 c-52 -2 -138
-10 -190 -19z"/>
<path d="M9782 13598 c-690 -135 -1034 -1063 -608 -1643 l74 -101 34 178 c144
735 716 1288 1335 1288 l90 0 -48 51 c-162 173 -590 284 -877 227z"/>
<path d="M10445 13030 c-305 -85 -445 -226 -445 -446 1 -153 24 -166 120 -66
347 357 876 150 1005 -393 30 -126 40 -128 137 -23 199 216 182 583 -36 781
-165 148 -531 218 -781 147z"/>
<path d="M14188 12495 c-3 -611 -177 -1152 -553 -1717 l-127 -193 -67 -337
c-144 -740 -373 -1260 -768 -1748 -122 -151 -450 -480 -478 -480 -8 0 -15 -8
-15 -17 0 -9 97 4 215 30 1634 359 2550 1279 2688 2699 53 550 -88 1129 -383
1570 -77 116 -463 518 -496 518 -8 0 -15 -146 -16 -325z"/>
<path d="M9652 12338 c-81 -175 -137 -428 -128 -580 l6 -108 126 -64 126 -64
112 68 c61 37 189 92 284 122 221 70 219 67 97 147 -290 187 -439 341 -496
511 -43 128 -54 125 -127 -32z"/>
<path d="M6118 12287 c-376 -390 -555 -844 -573 -1457 -48 -1639 860 -2771
2584 -3221 305 -80 307 -80 155 33 -807 602 -1255 1465 -1421 2739 l-38 289
-111 187 c-233 390 -426 996 -436 1371 -2 45 -8 108 -15 139 l-13 57 -132
-137z"/>
<path d="M10365 12380 c-36 -22 -83 -69 -105 -104 l-39 -65 155 -98 c84 -54
197 -134 249 -177 87 -73 101 -78 177 -66 l83 14 -11 112 c-34 325 -290 518
-509 384z"/>
<path d="M2620 12258 c1020 -303 1309 -377 1322 -341 8 20 0 38 -20 46 -59 23
-1718 437 -1745 436 -15 -1 185 -64 443 -141z"/>
<path d="M17400 12179 c-423 -108 -790 -202 -815 -208 -49 -13 -62 -71 -16
-71 51 0 1204 323 1561 438 271 87 -4 27 -730 -159z"/>
<path d="M11640 12253 c0 -66 -129 -276 -227 -368 -165 -157 -360 -240 -733
-314 -176 -35 -409 -97 -505 -135 -53 -20 -47 -24 120 -79 292 -97 608 -266
762 -409 l136 -125 211 118 c244 136 254 152 308 465 47 266 9 874 -54 874
-10 0 -18 -12 -18 -27z"/>
<path d="M8722 12170 c-97 -335 -130 -899 -72 -1228 32 -184 24 -171 280 -442
300 -318 453 -545 583 -868 l64 -157 44 87 c193 383 625 780 1161 1066 l159
86 -95 75 c-140 109 -412 235 -786 362 -584 199 -890 373 -1066 606 -128 168
-154 216 -203 361 l-46 132 -23 -80z"/>
<path d="M12672 11945 c-199 -596 -586 -964 -1502 -1425 -897 -453 -1280 -830
-1490 -1468 l-45 -137 68 -52 c127 -97 403 -373 492 -493 49 -66 95 -116 102
-111 7 5 66 91 131 190 263 401 629 703 1473 1212 708 428 640 368 751 672
185 513 227 1027 127 1555 -47 247 -44 246 -107 57z"/>
<path d="M7634 11855 c-114 -558 -93 -1077 66 -1617 69 -234 347 -456 996
-792 140 -73 347 -185 462 -249 240 -136 222 -130 222 -69 0 329 -258 773
-764 1314 -581 621 -835 1041 -908 1499 -19 117 -36 98 -74 -86z"/>
<path d="M4238 11794 c-91 -151 -172 -336 -279 -644 -130 -373 -230 -582 -371
-770 l-110 -146 47 -52 c78 -84 186 -245 240 -352 49 -99 83 -188 225 -590
125 -351 308 -679 456 -817 l51 -47 13 97 c77 559 264 993 612 1419 l115 142
-149 148 c-384 380 -765 1191 -768 1633 0 87 -20 82 -82 -21z"/>
<path d="M16191 11729 c-54 -481 -260 -976 -564 -1352 l-128 -159 127 -170
c302 -402 459 -826 491 -1328 l13 -210 98 147 c98 147 172 320 332 773 106
301 210 508 339 679 121 159 122 117 -9 281 -142 179 -223 347 -361 750 -105
305 -223 574 -295 669 -28 37 -31 32 -43 -80z"/>
<path d="M2410 10261 c-231 -6 -411 -17 -400 -23 49 -31 1120 -29 1120 2 0 35
-80 38 -720 21z"/>
<path d="M17360 10244 c0 -41 2 -41 545 -30 606 13 797 44 273 45 -182 1 -441
7 -575 14 -237 13 -243 12 -243 -29z"/>
<path d="M13070 10097 c-105 -143 -442 -448 -655 -592 -204 -139 -293 -189
-740 -422 -653 -341 -965 -611 -1150 -997 l-68 -144 44 -196 c25 -108 47 -199
50 -202 28 -36 599 161 894 308 845 422 1555 1363 1686 2235 17 113 14 113
-61 10z"/>
<path d="M7201 9958 c253 -1405 1320 -2519 2413 -2518 186 0 649 36 664 51 22
22 -69 326 -139 466 -189 376 -533 629 -1299 953 -809 342 -1258 659 -1572
1110 -48 69 -91 129 -95 134 -5 4 8 -84 28 -196z"/>
<path d="M15173 9858 c-192 -524 -602 -1061 -1057 -1385 -135 -96 -142 -106
-166 -233 -208 -1103 -1140 -1921 -2530 -2221 -265 -57 -267 -60 -127 -144
971 -584 1944 -551 3032 103 417 250 670 350 995 391 l90 12 2 254 c2 313 37
468 215 949 361 976 268 1769 -277 2371 l-101 111 -76 -208z"/>
<path d="M5240 9597 c-305 -405 -462 -872 -461 -1375 0 -459 54 -648 371
-1302 280 -578 369 -845 370 -1115 l0 -105 178 0 c305 0 620 -88 1001 -280
1393 -700 2563 -596 3551 315 l136 125 -221 0 c-685 0 -1359 162 -1814 435
-478 287 -949 828 -1100 1262 -19 55 -51 83 -172 148 -844 455 -1389 1077
-1630 1862 -71 232 -58 230 -209 30z"/>
<path d="M3470 8471 c-1448 -410 -1605 -471 -487 -190 400 101 782 196 850
212 105 25 121 35 112 68 -5 22 -15 38 -22 37 -7 -1 -211 -58 -453 -127z"/>
<path d="M16547 8569 c-7 -17 -9 -34 -4 -38 6 -7 1540 -397 1727 -440 300 -69
-546 186 -1300 391 -198 54 -372 103 -386 108 -14 5 -31 -4 -37 -21z"/>
<path d="M13418 8079 c-429 -196 -868 -315 -1475 -399 -273 -38 -328 -53 -496
-131 -971 -451 -2389 -511 -3580 -152 -299 91 -286 93 -219 -31 555 -1018
1909 -1444 3545 -1115 1345 271 2157 879 2434 1824 17 58 25 104 17 103 -8 -1
-109 -46 -226 -99z"/>
<path d="M4608 7092 c-21 -15 -218 -133 -438 -263 -522 -307 -1215 -729 -1240
-754 -23 -23 242 116 540 284 790 445 1210 693 1210 714 0 39 -30 47 -72 19z"/>
<path d="M15813 7091 c-16 -43 33 -73 1037 -635 702 -393 710 -397 710 -388 0
11 -502 319 -1155 709 -627 374 -579 349 -592 314z"/>
<path d="M10760 5884 c0 -34 -438 -460 -590 -574 -566 -425 -1118 -614 -1803
-618 -167 -1 -299 -8 -294 -16 69 -113 567 -355 1057 -515 529 -172 887 -351
1038 -519 50 -55 95 -53 151 7 159 169 469 321 1047 512 765 253 1112 469
1426 886 114 152 123 143 -142 146 -577 7 -1255 240 -1710 587 -116 89 -180
126 -180 104z"/>
<path d="M14683 5794 c-22 -27 894 -949 1367 -1375 l120 -108 -103 110 c-864
919 -1355 1407 -1384 1373z"/>
<path d="M4968 4993 c-186 -189 -401 -410 -478 -492 l-140 -148 120 103 c296
254 898 857 867 869 -22 8 -133 -92 -369 -332z"/>
<path d="M13224 4975 c-24 -29 18 -104 749 -1330 377 -631 493 -812 386 -603
-118 231 -910 1629 -1073 1894 -32 51 -45 60 -62 39z"/>
<path d="M6816 4276 c-749 -1318 -917 -1659 -357 -726 697 1162 770 1293 721
1304 -21 5 -129 -167 -364 -578z"/>
<path d="M8512 3875 c-128 -459 -393 -1503 -390 -1539 4 -51 478 1554 478
1619 0 71 -62 15 -88 -80z"/>
<path d="M11880 3966 c0 -52 482 -1691 494 -1679 7 7 -224 929 -379 1513 -38
145 -115 256 -115 166z"/>
<path d="M10214 3225 c-13 -23 14 -1280 28 -1294 15 -15 43 1265 28 1290 -15
23 -44 25 -56 4z"/>
</g>
</svg>
