<svg width="64" height="64" viewBox="0 0 64 64" fill="none" xmlns="http://www.w3.org/2000/svg">
  <!-- Radiating sunburst lines (24 rays) -->
  <g stroke="black" stroke-width="1.25" stroke-linecap="round">
    <line x1="32" y1="13" x2="32" y2="5" />
    <line x1="36.4" y1="14.2" x2="42.3" y2="8.9" />
    <line x1="39.6" y1="17.2" x2="48.4" y2="13.2" />
    <line x1="41.5" y1="21" x2="51.5" y2="21" />
    <line x1="39.6" y1="24.8" x2="48.4" y2="28.8" />
    <line x1="36.4" y1="27.8" x2="42.3" y2="33.1" />
    <line x1="32" y1="31" x2="32" y2="41" />
    <line x1="27.6" y1="27.8" x2="21.7" y2="33.1" />
    <line x1="24.4" y1="24.8" x2="15.6" y2="28.8" />
    <line x1="22.5" y1="21" x2="12.5" y2="21" />
    <line x1="24.4" y1="17.2" x2="15.6" y2="13.2" />
    <line x1="27.6" y1="14.2" x2="21.7" y2="8.9" />
    <line x1="39.2" y1="11.3" x2="45.2" y2="5.5" />
    <line x1="43.2" y1="13.8" x2="51.9" y2="10.6" />
    <line x1="45.6" y1="17.5" x2="55.3" y2="17.5" />
    <line x1="43.2" y1="21.2" x2="51.9" y2="24.4" />
    <line x1="39.2" y1="23.7" x2="45.2" y2="29.5" />
    <line x1="24.8" y1="23.7" x2="18.8" y2="29.5" />
    <line x1="20.8" y1="21.2" x2="12.1" y2="24.4" />
    <line x1="18.4" y1="17.5" x2="8.7" y2="17.5" />
    <line x1="20.8" y1="13.8" x2="12.1" y2="10.6" />
    <line x1="24.8" y1="11.3" x2="18.8" y2="5.5" />
    <line x1="34.6" y1="9.8" x2="39.9" y2="5.5" />
    <line x1="29.4" y1="9.8" x2="24.1" y2="5.5" />
  </g>
  <!-- Rose petals -->
  <g fill="black">
    <path d="M32 8c-5 2-12 6-10 14 2 6 8 8 10 8 2 0 8-2 10-8 2-8-5-12-10-16z" />
    <path d="M32 8c3 5 8 10 14 10 6 0 8-6 6-12-2-4-8-6-14-4-6 2-8 4-2 6z" />
    <path d="M32 8c5 2 12 6 10 14-2 6-8 8-10 8-2 0-8-2-10-8-2-8 5-12 10-16z" />
    <path d="M32 8c-3 5-8 10-14 10-6 0-8-6-6-12 2-4 8-6 14-4 6 2 8 4 2 6z" />
    <path d="M32 8c0 6 4 12 10 14 6 2 10-2 10-8 0-6-4-10-10-12-6-2-10 2-10 6z" />
    <path d="M32 14c-6 0-10 4-10 8 0 4 4 8 10 8 6 0 10-4 10-8 0-4-4-8-10-8z" />
    <path d="M24 20c0 4 4 6 8 6 4 0 6-4 4-8-2-4-6-4-12 2z" />
    <path d="M40 20c0 4-4 6-8 6-4 0-6-4-4-8 2-4 6-4 12 2z" />
    <path d="M32 16c-4 2-6 4-6 6 0 2 2 4 6 4 4 0 6-2 6-4 0-2-2-4-6-6z" />
    <path d="M32 20c-4 0-6 2-6 6 0 4 2 6 6 6 4 0 6-2 6-6 0-4-2-6-6-6z" />
    <path d="M32 22c-2 0-4 2-4 4 0 2 2 4 4 4 2 0 4-2 4-4 0-2-2-4-4-4z" />
  </g>
</svg>
